<svg width="81" height="15" viewBox="0 0 81 15" fill="none" xmlns="http://www.w3.org/2000/svg">
<rect x="5.89142" y="3.76837" width="12.3553" height="9.70951" rx="2.35596" stroke="#383838" stroke-width="1.1676"/>
<rect x="0.5838" y="0.5838" width="12.3553" height="9.70951" rx="2.35596" stroke="#383838" stroke-width="1.1676"/>
<path d="M35.4208 10.8643C34.8268 10.8643 34.2511 10.78 33.6938 10.6113C33.1438 10.4427 32.7074 10.219 32.3848 9.94034L32.8798 8.82934C33.1951 9.07867 33.5801 9.284 34.0348 9.44534C34.4968 9.59934 34.9588 9.67634 35.4208 9.67634C35.9928 9.67634 36.4181 9.58467 36.6968 9.40134C36.9828 9.218 37.1258 8.976 37.1258 8.67534C37.1258 8.45534 37.0451 8.27567 36.8838 8.13634C36.7298 7.98967 36.5318 7.876 36.2898 7.79534C36.0478 7.71467 35.7178 7.623 35.2998 7.52034C34.7131 7.381 34.2364 7.24167 33.8698 7.10234C33.5104 6.963 33.1988 6.74667 32.9348 6.45334C32.6781 6.15267 32.5498 5.74934 32.5498 5.24334C32.5498 4.818 32.6634 4.433 32.8908 4.08834C33.1254 3.73634 33.4738 3.45767 33.9358 3.25234C34.4051 3.047 34.9771 2.94434 35.6518 2.94434C36.1211 2.94434 36.5831 3.003 37.0378 3.12034C37.4924 3.23767 37.8848 3.40634 38.2148 3.62634L37.7638 4.73734C37.4264 4.53934 37.0744 4.389 36.7078 4.28634C36.3411 4.18367 35.9854 4.13234 35.6408 4.13234C35.0761 4.13234 34.6544 4.22767 34.3758 4.41834C34.1044 4.609 33.9688 4.862 33.9688 5.17734C33.9688 5.39734 34.0458 5.577 34.1998 5.71634C34.3611 5.85567 34.5628 5.96567 34.8048 6.04634C35.0468 6.127 35.3768 6.21867 35.7948 6.32134C36.3668 6.45334 36.8361 6.59267 37.2028 6.73934C37.5694 6.87867 37.8811 7.095 38.1378 7.38834C38.4018 7.68167 38.5338 8.07767 38.5338 8.57634C38.5338 9.00167 38.4164 9.38667 38.1818 9.73134C37.9544 10.076 37.6061 10.351 37.1368 10.5563C36.6674 10.7617 36.0954 10.8643 35.4208 10.8643Z" fill="#383838"/>
<path d="M42.9517 10.8383C42.2877 10.8383 41.6917 10.6983 41.1637 10.4183C40.6357 10.1383 40.2237 9.75034 39.9277 9.25434C39.6317 8.75034 39.4837 8.18234 39.4837 7.55034C39.4837 6.91834 39.6317 6.35434 39.9277 5.85834C40.2237 5.36234 40.6317 4.97434 41.1517 4.69434C41.6797 4.41434 42.2797 4.27434 42.9517 4.27434C43.5837 4.27434 44.1357 4.40234 44.6077 4.65834C45.0877 4.91434 45.4477 5.28234 45.6877 5.76234L44.5357 6.43434C44.3517 6.13834 44.1197 5.91834 43.8397 5.77434C43.5677 5.62234 43.2677 5.54634 42.9397 5.54634C42.3797 5.54634 41.9157 5.73034 41.5477 6.09834C41.1797 6.45834 40.9957 6.94234 40.9957 7.55034C40.9957 8.15834 41.1757 8.64634 41.5357 9.01434C41.9037 9.37434 42.3717 9.55434 42.9397 9.55434C43.2677 9.55434 43.5677 9.48234 43.8397 9.33834C44.1197 9.18634 44.3517 8.96234 44.5357 8.66634L45.6877 9.33834C45.4397 9.81834 45.0757 10.1903 44.5957 10.4543C44.1237 10.7103 43.5757 10.8383 42.9517 10.8383Z" fill="#383838"/>
<path d="M48.5324 5.28234C48.9644 4.61034 49.7244 4.27434 50.8124 4.27434V5.70234C50.6844 5.67834 50.5684 5.66634 50.4644 5.66634C49.8804 5.66634 49.4244 5.83834 49.0964 6.18234C48.7684 6.51834 48.6044 7.00634 48.6044 7.64634V10.7543H47.1044V4.34634H48.5324V5.28234Z" fill="#383838"/>
<path d="M58.1703 7.58634C58.1703 7.69034 58.1623 7.83834 58.1463 8.03034H53.1183C53.2063 8.50234 53.4343 8.87834 53.8023 9.15834C54.1783 9.43034 54.6423 9.56634 55.1943 9.56634C55.8983 9.56634 56.4783 9.33434 56.9343 8.87034L57.7383 9.79434C57.4503 10.1383 57.0863 10.3983 56.6463 10.5743C56.2063 10.7503 55.7103 10.8383 55.1583 10.8383C54.4543 10.8383 53.8343 10.6983 53.2983 10.4183C52.7623 10.1383 52.3463 9.75034 52.0503 9.25434C51.7623 8.75034 51.6183 8.18234 51.6183 7.55034C51.6183 6.92634 51.7583 6.36634 52.0383 5.87034C52.3263 5.36634 52.7223 4.97434 53.2263 4.69434C53.7303 4.41434 54.2983 4.27434 54.9303 4.27434C55.5543 4.27434 56.1103 4.41434 56.5983 4.69434C57.0943 4.96634 57.4783 5.35434 57.7503 5.85834C58.0303 6.35434 58.1703 6.93034 58.1703 7.58634ZM54.9303 5.47434C54.4503 5.47434 54.0423 5.61834 53.7063 5.90634C53.3783 6.18634 53.1783 6.56234 53.1063 7.03434H56.7423C56.6783 6.57034 56.4823 6.19434 56.1543 5.90634C55.8263 5.61834 55.4183 5.47434 54.9303 5.47434Z" fill="#383838"/>
<path d="M65.7551 7.58634C65.7551 7.69034 65.7471 7.83834 65.7311 8.03034H60.7031C60.7911 8.50234 61.0191 8.87834 61.3871 9.15834C61.7631 9.43034 62.2271 9.56634 62.7791 9.56634C63.4831 9.56634 64.0631 9.33434 64.5191 8.87034L65.3231 9.79434C65.0351 10.1383 64.6711 10.3983 64.2311 10.5743C63.7911 10.7503 63.2951 10.8383 62.7431 10.8383C62.0391 10.8383 61.4191 10.6983 60.8831 10.4183C60.3471 10.1383 59.9311 9.75034 59.6351 9.25434C59.3471 8.75034 59.2031 8.18234 59.2031 7.55034C59.2031 6.92634 59.3431 6.36634 59.6231 5.87034C59.9111 5.36634 60.3071 4.97434 60.8111 4.69434C61.3151 4.41434 61.8831 4.27434 62.5151 4.27434C63.1391 4.27434 63.6951 4.41434 64.1831 4.69434C64.6791 4.96634 65.0631 5.35434 65.3351 5.85834C65.6151 6.35434 65.7551 6.93034 65.7551 7.58634ZM62.5151 5.47434C62.0351 5.47434 61.6271 5.61834 61.2911 5.90634C60.9631 6.18634 60.7631 6.56234 60.6911 7.03434H64.3271C64.2631 6.57034 64.0671 6.19434 63.7391 5.90634C63.4111 5.61834 63.0031 5.47434 62.5151 5.47434Z" fill="#383838"/>
<path d="M70.952 4.27434C71.76 4.27434 72.408 4.51034 72.896 4.98234C73.384 5.45434 73.628 6.15434 73.628 7.08234V10.7543H72.128V7.27434C72.128 6.71434 71.996 6.29434 71.732 6.01434C71.468 5.72634 71.092 5.58234 70.604 5.58234C70.052 5.58234 69.616 5.75034 69.296 6.08634C68.976 6.41434 68.816 6.89034 68.816 7.51434V10.7543H67.316V4.34634H68.744V5.17434C68.992 4.87834 69.304 4.65434 69.68 4.50234C70.056 4.35034 70.48 4.27434 70.952 4.27434Z" fill="#383838"/>
<path d="M77.6308 10.8383C77.1108 10.8383 76.6028 10.7703 76.1068 10.6343C75.6108 10.4983 75.2148 10.3263 74.9188 10.1183L75.4948 8.97834C75.7828 9.17034 76.1268 9.32634 76.5268 9.44634C76.9348 9.55834 77.3348 9.61434 77.7268 9.61434C78.6228 9.61434 79.0708 9.37834 79.0708 8.90634C79.0708 8.68234 78.9548 8.52634 78.7228 8.43834C78.4988 8.35034 78.1348 8.26634 77.6308 8.18634C77.1028 8.10634 76.6708 8.01434 76.3348 7.91034C76.0068 7.80634 75.7188 7.62634 75.4708 7.37034C75.2308 7.10634 75.1108 6.74234 75.1108 6.27834C75.1108 5.67034 75.3628 5.18634 75.8668 4.82634C76.3788 4.45834 77.0668 4.27434 77.9308 4.27434C78.3708 4.27434 78.8108 4.32634 79.2508 4.43034C79.6908 4.52634 80.0508 4.65834 80.3308 4.82634L79.7548 5.96634C79.2108 5.64634 78.5988 5.48634 77.9188 5.48634C77.4788 5.48634 77.1428 5.55434 76.9108 5.69034C76.6868 5.81834 76.5748 5.99034 76.5748 6.20634C76.5748 6.44634 76.6948 6.61834 76.9348 6.72234C77.1828 6.81834 77.5628 6.91034 78.0748 6.99834C78.5868 7.07834 79.0068 7.17034 79.3348 7.27434C79.6628 7.37834 79.9428 7.55434 80.1748 7.80234C80.4148 8.05034 80.5348 8.40234 80.5348 8.85834C80.5348 9.45834 80.2748 9.93834 79.7548 10.2983C79.2348 10.6583 78.5268 10.8383 77.6308 10.8383Z" fill="#383838"/>
</svg>
